<svg xmlns="http://www.w3.org/2000/svg" width="32" height="32" viewBox="0 0 32 32">
  <g id="Email_Logo" data-name="Email Logo" transform="translate(-1215 -707)">
    <rect id="Rectangle_1769" data-name="Rectangle 1769" width="32" height="32" rx="4" transform="translate(1215 707)" fill="#fff"/>
    <path id="Union_27" data-name="Union 27" d="M903.2-2972a1.179,1.179,0,0,1-1.2-1.2v-.56l11.2-5.4.8.4.8-.4,11.2,5.4v.56a1.179,1.179,0,0,1-1.2,1.2Zm12.52-7.6,10.28-4.96v9.92Zm-13.72-4.96,10.28,4.96L902-2974.641Zm2.4.28V-2996h19.2v11.72l-9.6,4.64Zm7.56-8.8a4.343,4.343,0,0,0-1.68,1.72,4.9,4.9,0,0,0-.6,2.44,4.038,4.038,0,0,0,1.16,3.04,4.53,4.53,0,0,0,3.24,1.08,7.044,7.044,0,0,0,2.64-.44v-1.2a8.229,8.229,0,0,1-1.4.479,7.615,7.615,0,0,1-1.28.12,3.2,3.2,0,0,1-2.32-.8,3.263,3.263,0,0,1-.8-2.319,4.417,4.417,0,0,1,.44-1.96,2.838,2.838,0,0,1,1.24-1.32,4.244,4.244,0,0,1,1.92-.44,3.161,3.161,0,0,1,1.52.36,2.605,2.605,0,0,1,1.04,1.04,3.21,3.21,0,0,1,.36,1.56,4.169,4.169,0,0,1-.2,1.32c-.16.36-.32.521-.56.521-.28,0-.4-.24-.4-.76l.12-2.68a4,4,0,0,0-.92-.2c-.4-.04-.72-.081-1.04-.081a2.6,2.6,0,0,0-1.92.72,2.411,2.411,0,0,0-.72,1.84,2.22,2.22,0,0,0,.56,1.6,2.085,2.085,0,0,0,1.52.561,2.118,2.118,0,0,0,1.52-.72h.08a1.243,1.243,0,0,0,1.32.8,1.427,1.427,0,0,0,.92-.44,2.431,2.431,0,0,0,.72-1.04,3.5,3.5,0,0,0,.2-1.48,4.019,4.019,0,0,0-.52-2.08,3.567,3.567,0,0,0-1.48-1.4,4.766,4.766,0,0,0-2.16-.48A5.115,5.115,0,0,0,911.96-2993.08Zm12.44,4.72.96.68a1.672,1.672,0,0,1,.64,1.28v.96l-1.6.76Zm-22.4,2.88v-.92a1.672,1.672,0,0,1,.64-1.28l.96-.68v3.64Zm11.08-3.56a1.763,1.763,0,0,1,.4-1.16,1.356,1.356,0,0,1,1.08-.44,3.142,3.142,0,0,1,.64.08l-.08,1.2a2.338,2.338,0,0,1-.32,1.12.93.93,0,0,1-.76.36C913.4-2987.88,913.08-2988.28,913.08-2989.041Z" transform="translate(317 3707)" fill="#696969"/>
  </g>
</svg>
