<svg xmlns="http://www.w3.org/2000/svg" xmlns:xlink="http://www.w3.org/1999/xlink" width="552.672" height="349.214" viewBox="0 0 552.672 349.214">
  <defs>
    <linearGradient id="linear-gradient" x1="0.5" y1="0.141" x2="0.5" y2="1" gradientUnits="objectBoundingBox">
      <stop offset="0" stop-color="#e52f00"/>
      <stop offset="1" stop-color="#571807"/>
    </linearGradient>
  </defs>
  <path id="Union_15" data-name="Union 15" d="M525.306,1600.214l5.891-14.26-13.578-30.69h4.464l11.222,25.978,10.229-25.978h4.279l-18.229,44.95Zm-177.01-28.52c0-9.982,7.192-17.05,16.182-17.05,5.395,0,10.044,2.479,12.4,6.385-.062-2.293-.124-4.587-.124-7.006V1540.26h3.968V1588h-3.658v-6.076c-2.232,4.092-7.069,6.7-12.586,6.7C355.487,1588.62,348.3,1581.552,348.3,1571.693Zm4.03,0c0,7.627,5.332,13.144,12.586,13.144,6.635,0,12.215-4.588,12.215-13.144,0-8.618-5.58-13.268-12.215-13.268C357.657,1558.426,352.326,1564.006,352.326,1571.693Zm-58.342,0c0-9.982,7.192-17.05,16.182-17.05,5.518,0,10.354,2.666,12.586,6.758v-6.138h3.659V1588h-3.659v-6.076c-2.232,4.092-7.068,6.7-12.586,6.7C301.176,1588.62,293.984,1581.552,293.984,1571.693Zm4.029,0c0,7.627,5.333,13.144,12.587,13.144,6.634,0,12.214-4.588,12.214-13.144,0-8.618-5.58-13.268-12.214-13.268C303.346,1558.426,298.013,1564.006,298.013,1571.693Zm104.594.062c0-9.486,6.82-16.987,16.182-16.987,8.059,0,15.19,5.456,15.438,16.864H406.452v.185c0,7.316,5.084,13.082,12.772,13.082a13.267,13.267,0,0,0,11.966-7.069l2.975,1.922a16.954,16.954,0,0,1-15,8.8C409.242,1588.558,402.608,1581.179,402.608,1571.755Zm4.154-3.41h23.375c-1.24-6.943-6.076-9.982-11.408-9.982A12.031,12.031,0,0,0,406.761,1568.345Zm-153.14,3.348c0-9.858,6.944-16.74,16.616-16.74a34.822,34.822,0,0,1,5.27.5v3.721a34.777,34.777,0,0,0-4.9-.434c-7.75,0-12.957,5.332-12.957,12.957s5.207,12.9,12.957,12.9a34.777,34.777,0,0,0,4.9-.434v3.72a28.766,28.766,0,0,1-5.27.558C260.566,1588.433,253.622,1581.49,253.622,1571.693ZM494.987,1588v-19.9c0-6.014-2.417-9.672-7.564-9.672-5.27,0-8.122,3.782-8.122,10.292V1588h-3.967v-19.282c0-6.511-2.852-10.292-8.06-10.292-5.146,0-7.626,3.658-7.626,9.672V1588H455.68v-20.088c0-8.184,4.154-13.268,11.47-13.268,5.146,0,8.618,2.542,10.168,6.324,1.612-3.783,5.084-6.324,10.292-6.324,7.192,0,11.345,5.084,11.345,13.268V1588ZM231.3,1588l-3.658-10.726H208.3L204.642,1588h-4.279l15.624-45.322h3.968L235.7,1588Zm-21.762-14.446H226.4l-8.432-24.8ZM0,1252H56.479L178.79,1531.04,265.2,1336.566H272l-88.4,204.055-20.245,47.3-16.51.077Zm518.3,255.694c0-9.858,7.13-17.05,16.554-17.05s16.554,7.192,16.554,17.05c0,9.734-7.13,16.988-16.554,16.988S518.3,1517.428,518.3,1507.693Zm4.029,0c0,7.627,5.333,13.145,12.524,13.145s12.524-5.518,12.524-13.145c0-7.688-5.333-13.268-12.524-13.268S522.329,1500.006,522.329,1507.693Zm-86.242,0c0-9.982,7.192-17.05,16.182-17.05,5.394,0,10.044,2.479,12.4,6.385-.062-2.293-.124-4.587-.124-7.006V1476.26h3.968V1524h-3.659v-6.076c-2.232,4.092-7.068,6.7-12.586,6.7C443.28,1524.62,436.088,1517.552,436.088,1507.693Zm4.03,0c0,7.627,5.332,13.145,12.586,13.145,6.634,0,12.214-4.588,12.214-13.145,0-8.617-5.58-13.268-12.214-13.268C445.45,1494.426,440.118,1500.006,440.118,1507.693Zm-58.342,0c0-9.982,7.192-17.05,16.182-17.05,5.518,0,10.354,2.666,12.586,6.758v-6.138H414.2V1524h-3.658v-6.076c-2.232,4.092-7.069,6.7-12.586,6.7C388.967,1524.62,381.776,1517.552,381.776,1507.693Zm4.03,0c0,7.627,5.332,13.145,12.586,13.145,6.635,0,12.215-4.588,12.215-13.145,0-8.617-5.58-13.268-12.215-13.268C391.137,1494.426,385.806,1500.006,385.806,1507.693Zm-106.206,0c0-9.982,7.192-17.05,16.182-17.05,5.519,0,10.354,2.666,12.587,6.758v-6.138h3.658V1524h-3.658v-6.076c-2.232,4.092-7.068,6.7-12.587,6.7C286.791,1524.62,279.6,1517.552,279.6,1507.693Zm4.03,0c0,7.627,5.332,13.145,12.586,13.145,6.634,0,12.214-4.588,12.214-13.145,0-8.617-5.58-13.268-12.214-13.268C288.962,1494.426,283.63,1500.006,283.63,1507.693ZM492.446,1524v-32.736h3.968V1524Zm-136.152,0v-19.654c0-6.448-2.976-9.92-8.37-9.92-5.456,0-8.37,3.472-8.37,9.92V1524h-3.968v-19.778c0-8.555,4.526-13.577,12.338-13.577,7.75,0,12.338,5.022,12.338,13.577V1524Zm-110.918,0-15.19-45.322h4.526l12.71,38.936,12.587-38.936h4.34l-15,45.322ZM176.8,1503.718l88.4-203.139H272l-88.4,203.139Zm315.646-18.654v-8.8h3.968v8.8Z" transform="translate(0.764 -1251.5)" stroke="rgba(0,0,0,0)" stroke-miterlimit="10" stroke-width="1" fill="url(#linear-gradient)"/>
</svg>
