<svg xmlns="http://www.w3.org/2000/svg" width="32" height="32" viewBox="0 0 32 32">
  <g id="Site_logo" data-name="Site logo" transform="translate(-1215 -771)">
    <rect id="Rectangle_1770" data-name="Rectangle 1770" width="32" height="32" rx="4" transform="translate(1215 771)" fill="#fff"/>
    <path id="Union_28" data-name="Union 28" d="M912.224-2972.128s-1.912-5.344-2.232-7.072h4.768l2.224,6.679a.682.682,0,0,0,.056.128A11.639,11.639,0,0,1,914-2972,12.911,12.911,0,0,1,912.224-2972.128Zm-9.216-7.072h5.36a24.785,24.785,0,0,0,2.08,6.664A12.035,12.035,0,0,1,903.008-2979.2Zm14.6,3.5-2.134-6.4a.334.334,0,0,1,.423-.423l6.4,2.133h0a.334.334,0,0,1,.037.62l-2.418,1.144a1.139,1.139,0,0,0-.544.543l-1.144,2.418a.329.329,0,0,1-.3.191A.329.329,0,0,1,917.608-2975.7Zm-7.856-5.1a25.181,25.181,0,0,1,0-6.4h8.512a23.84,23.84,0,0,1,.192,3.848l-4.2-1.4a.772.772,0,0,0-.816.192.788.788,0,0,0-.192.816l.976,2.944Zm-7.32,0A12.107,12.107,0,0,1,902-2984a12.118,12.118,0,0,1,.432-3.2h5.7a26.8,26.8,0,0,0,0,6.4Zm17.608-2.024a24.963,24.963,0,0,0-.168-4.376h5.7A12.148,12.148,0,0,1,926-2984a11.642,11.642,0,0,1-.392,3.04C925.568-2980.984,920.04-2982.824,920.04-2982.824Zm-.4-5.976a25.44,25.44,0,0,0-2.08-6.663,12.023,12.023,0,0,1,7.432,6.663Zm-9.648,0c.32-1.728,2.232-7.072,2.232-7.072A13.063,13.063,0,0,1,914-2996a12.055,12.055,0,0,1,1.792.136s1.888,5.3,2.224,7.064Zm-6.984,0a12.035,12.035,0,0,1,7.44-6.663c-.539,1.11-2.062,6.663-2.08,6.663Z" transform="translate(317 3771)" fill="#696969"/>
  </g>
</svg>
