<svg xmlns="http://www.w3.org/2000/svg" xmlns:xlink="http://www.w3.org/1999/xlink" width="16" height="14" viewBox="0 0 16 14">
  <defs>
    <linearGradient id="linear-gradient" x1="0.5" x2="0.5" y2="1" gradientUnits="objectBoundingBox">
      <stop offset="0" stop-color="#e52f00"/>
      <stop offset="1" stop-color="#412003"/>
    </linearGradient>
  </defs>
  <path id="Hamburger_Hover" data-name="Hamburger Hover" d="M903-2981a1,1,0,0,1-1-1,1,1,0,0,1,1-1h14a1,1,0,0,1,1,.96v.082a1,1,0,0,1-1,.959Zm0-6a1,1,0,0,1-1-1,1,1,0,0,1,1-1h14a1,1,0,0,1,1,.959v.081a1,1,0,0,1-1,.959Zm0-6a1,1,0,0,1-1-1,1,1,0,0,1,1-1h14a1,1,0,0,1,1,.96v.082a1,1,0,0,1-1,.959Z" transform="translate(-902 2995)" fill="url(#linear-gradient)"/>
</svg>
