<svg xmlns="http://www.w3.org/2000/svg" xmlns:xlink="http://www.w3.org/1999/xlink" width="901.437" height="540.139" viewBox="0 0 901.437 540.139">
  <defs>
    <linearGradient id="linear-gradient" x1="0.5" x2="0.5" y2="1" gradientUnits="objectBoundingBox">
      <stop offset="0" stop-color="#e52f00"/>
      <stop offset="1" stop-color="#412003"/>
    </linearGradient>
  </defs>
  <g id="Group_461" data-name="Group 461" transform="translate(-89.305 -95.5)">
    <path id="Path_97" data-name="Path 97" d="M20.449,61.733h4.981l18.836-56.9H38.818l-15.8,48.88L7.062,4.836H1.38Zm63.279.778c6.927,0,13-3.269,15.8-8.406v7.628h4.592v-41.1H99.529v7.706c-2.8-5.137-8.873-8.484-15.8-8.484-11.286,0-20.315,8.873-20.315,21.4C63.414,53.638,72.443,62.511,83.729,62.511ZM68.473,41.262c0-9.651,6.694-16.657,15.8-16.657,8.328,0,15.333,5.838,15.333,16.657,0,10.741-7.005,16.5-15.333,16.5C75.167,57.763,68.473,50.836,68.473,41.262ZM133.7,36.9V61.733h4.981V37.059c0-8.095,3.658-12.454,10.508-12.454,6.772,0,10.508,4.359,10.508,12.454V61.733h4.981V36.9c0-10.741-5.76-17.046-15.489-17.046C139.381,19.858,133.7,26.162,133.7,36.9ZM212,62.511c6.927,0,13-3.269,15.8-8.406v7.628h4.592v-41.1H227.8v7.706c-2.8-5.137-8.873-8.484-15.8-8.484-11.286,0-20.315,8.873-20.315,21.4C191.685,53.638,200.714,62.511,212,62.511ZM196.745,41.262c0-9.651,6.694-16.657,15.8-16.657,8.328,0,15.333,5.838,15.333,16.657,0,10.741-7.005,16.5-15.333,16.5C203.438,57.763,196.745,50.836,196.745,41.262Zm83.439,21.249c6.927,0,13-3.269,15.8-8.406v7.628h4.592V1.8h-4.981V19.079c0,3.036.078,5.915.156,8.8-2.958-4.9-8.8-8.017-15.567-8.017-11.286,0-20.315,8.873-20.315,21.4C259.868,53.638,268.9,62.511,280.183,62.511ZM264.928,41.262c0-9.651,6.694-16.657,15.8-16.657,8.328,0,15.333,5.838,15.333,16.657,0,10.741-7.005,16.5-15.333,16.5C271.621,57.763,264.928,50.836,264.928,41.262Zm65.692,20.47H335.6v-41.1H330.62Zm0-48.88H335.6V1.8H330.62Zm53.239,49.736c11.831,0,20.782-9.107,20.782-21.327,0-12.376-8.951-21.4-20.782-21.4s-20.782,9.029-20.782,21.4C363.077,53.482,372.028,62.589,383.859,62.589ZM368.136,41.262c0-9.651,6.694-16.657,15.723-16.657s15.723,7.005,15.723,16.657c0,9.574-6.694,16.5-15.723,16.5S368.136,50.836,368.136,41.262Zm97.06,20.47h5.371l4.592-13.465h24.284l4.592,13.465h5.526l-19.77-56.9H484.81ZM476.715,43.6,487.3,12.463,497.886,43.6Zm76.2,18.68a36.162,36.162,0,0,0,6.616-.7v-4.67a43.741,43.741,0,0,1-6.149.545c-9.729,0-16.267-6.616-16.267-16.19s6.538-16.267,16.267-16.267a43.74,43.74,0,0,1,6.149.545v-4.67a43.631,43.631,0,0,0-6.616-.623c-12.142,0-20.86,8.64-20.86,21.015C532.055,53.56,540.773,62.277,552.915,62.277Zm50.125.234c6.927,0,13-3.269,15.8-8.406v7.628h4.592v-41.1h-4.592v7.706c-2.8-5.137-8.873-8.484-15.8-8.484-11.286,0-20.315,8.873-20.315,21.4C582.726,53.638,591.754,62.511,603.04,62.511ZM587.785,41.262c0-9.651,6.694-16.657,15.8-16.657,8.328,0,15.333,5.838,15.333,16.657,0,10.741-7.005,16.5-15.333,16.5C594.479,57.763,587.785,50.836,587.785,41.262Zm83.439,21.249c6.927,0,13-3.269,15.8-8.406v7.628h4.592V1.8h-4.981V19.079c0,3.036.078,5.915.156,8.8-2.958-4.9-8.8-8.017-15.567-8.017-11.286,0-20.315,8.873-20.315,21.4C650.909,53.638,659.938,62.511,671.224,62.511ZM655.968,41.262c0-9.651,6.694-16.657,15.8-16.657,8.328,0,15.333,5.838,15.333,16.657,0,10.741-7.005,16.5-15.333,16.5C662.662,57.763,655.968,50.836,655.968,41.262Zm83.906,21.171a21.285,21.285,0,0,0,18.836-11.052l-3.736-2.413a16.654,16.654,0,0,1-15.022,8.873c-9.651,0-16.034-7.239-16.034-16.423v-.234h34.87c-.311-14.322-9.262-21.171-19.381-21.171-11.753,0-20.315,9.418-20.315,21.327C719.092,53.171,727.42,62.433,739.873,62.433ZM724.307,37.059c1.479-7.161,7.161-12.531,15.022-12.531,6.694,0,12.765,3.814,14.322,12.531Zm61.411-.545V61.733H790.7V36.748c0-7.55,3.113-12.142,9.574-12.142,6.538,0,10.119,4.748,10.119,12.921V61.733h4.981V37.526c0-8.173,3.58-12.921,10.2-12.921,6.46,0,9.5,4.592,9.5,12.142V61.733h4.981V36.514c0-10.274-5.215-16.657-14.244-16.657-6.538,0-10.9,3.191-12.92,7.939-1.946-4.748-6.3-7.939-12.765-7.939C790.933,19.858,785.718,26.24,785.718,36.514Zm87.408,40.552H878.5l22.883-56.43h-5.371L883.167,53.249,869.079,20.636h-5.6L880.52,59.164Z" transform="translate(88.62 558.073)" stroke="rgba(0,0,0,0)" stroke-miterlimit="10" stroke-width="1" fill="url(#linear-gradient)"/>
    <path id="Path_96" data-name="Path 96" d="M190.492,1687.873,0,1252H73.266l158.668,361.982L344.028,1361.7h8.822L238.173,1626.411l-26.264,61.361Zm38.861-109.334,114.675-263.521h8.822L238.173,1578.539Z" transform="translate(348.793 -1156)" stroke="rgba(0,0,0,0)" stroke-miterlimit="10" stroke-width="1" fill="url(#linear-gradient)"/>
  </g>
</svg>
