<svg xmlns="http://www.w3.org/2000/svg" width="32" height="32" viewBox="0 0 32 32">
  <g id="Phone_Logo" data-name="Phone Logo" transform="translate(-1215 -643)">
    <rect id="Rectangle_1768" data-name="Rectangle 1768" width="32" height="32" rx="4" transform="translate(1215 643)" fill="#fff"/>
    <g id="noun-phone-7065848" transform="translate(1203.038 638.074)">
      <path id="Path_435" data-name="Path 435" d="M36.653,27.385l-1.423-2.339h0a2.737,2.737,0,0,0-3.761-.913l-1.175.715a.9.9,0,0,1-1.1-.113,15.961,15.961,0,0,1-4.052-6.662.9.9,0,0,1,.407-1.022l1.175-.714h0a2.736,2.736,0,0,0,.913-3.761l-1.424-2.339a2.738,2.738,0,0,0-3.761-.913L20.186,10.7a2.71,2.71,0,0,0-1.315,2.326A22.119,22.119,0,0,0,22.079,24.5a22.348,22.348,0,0,0,8.677,8.1,2.815,2.815,0,0,0,1.3.322,2.723,2.723,0,0,0,1.417-.4l2.267-1.38a2.738,2.738,0,0,0,.913-3.761Z" fill="#696969"/>
    </g>
  </g>
</svg>
