<svg id="Whatsapp_Link" data-name="Whatsapp Link" xmlns="http://www.w3.org/2000/svg" width="32" height="32" viewBox="0 0 32 32">
  <rect id="Rectangle_1767" data-name="Rectangle 1767" width="32" height="32" rx="10" fill="none"/>
  <path id="Union_23" data-name="Union 23" d="M-671.911-8185.095a.31.31,0,0,1-.073-.317l2.025-5.973a11.615,11.615,0,0,1-1.616-5.916,11.758,11.758,0,0,1,11.788-11.7A11.757,11.757,0,0,1-648-8197.3a11.757,11.757,0,0,1-11.787,11.7,11.873,11.873,0,0,1-5.58-1.392l-6.228,1.979a.285.285,0,0,1-.094.015A.308.308,0,0,1-671.911-8185.095Zm6.986-4.478a9.34,9.34,0,0,0,5.138,1.532,9.309,9.309,0,0,0,9.336-9.261,9.311,9.311,0,0,0-9.336-9.264,9.312,9.312,0,0,0-9.337,9.264,9.133,9.133,0,0,0,1.778,5.429.312.312,0,0,1,.044.284l-1.007,2.971,3.12-.991a.312.312,0,0,1,.094-.015A.316.316,0,0,1-664.925-8189.572Zm8.33-2.106a7.95,7.95,0,0,1-2.953-.755,11.4,11.4,0,0,1-4.889-4.244l-.05-.072a5.58,5.58,0,0,1-1.211-3.073,3.049,3.049,0,0,1,1.129-2.592,4.173,4.173,0,0,1,1.455-.373c.135-.006.1-.006.135-.006.347,0,.6.21.785.662.079.188.817,1.971.859,2.054a.815.815,0,0,1,.024.768l-.039.079a1.916,1.916,0,0,1-.284.451c-.047.053-.094.11-.141.167-.1.12-.2.245-.3.339a.573.573,0,0,0-.1.121.2.2,0,0,0,.029.069,9.214,9.214,0,0,0,3.5,3.106c.082.035.353.147.368.147s.047-.029.068-.054c.163-.185.693-.8.867-1.063a.693.693,0,0,1,.589-.349,1.2,1.2,0,0,1,.408.09c.311.112,2.061.974,2.107,1a1.11,1.11,0,0,1,.515.369,2.422,2.422,0,0,1-.138,1.595,3.1,3.1,0,0,1-2.164,1.531l-.086.008a4.522,4.522,0,0,1-.48.028Z" transform="translate(676 8213)" fill="#696969"/>
</svg>
